<svg width="84" height="84" viewBox="0 0 84 84" fill="none" xmlns="http://www.w3.org/2000/svg">
<path fill-rule="evenodd" clip-rule="evenodd" d="M33.583 8.002C36.312 8.002 38.531 10.18 38.531 12.857C38.531 15.535 36.31 17.713 33.583 17.713C30.854 17.713 28.634 15.535 28.634 12.857C28.634 10.179 30.854 8.002 33.583 8.002ZM40.808 11.808L63.159 16.971C61.611 18.525 60.652 20.646 60.652 22.985C60.652 23.129 60.667 23.268 60.675 23.41L39.894 16.633C40.538 15.562 40.916 14.319 40.916 12.988C40.916 12.586 40.874 12.193 40.808 11.808ZM69.424 16.716C72.946 16.717 75.811 19.528 75.811 22.985C75.811 26.441 72.946 29.253 69.424 29.253C65.901 29.253 63.035 26.441 63.036 22.985C63.036 19.527 65.902 16.716 69.424 16.716ZM27.646 17.193C28.765 18.713 30.471 19.784 32.438 20.088L25.365 28.942C25.077 29.3 25.029 29.791 25.242 30.197L26.543 32.681C26.792 33.157 26.764 33.727 26.469 34.176L23.664 38.446C23.602 38.54 23.496 38.597 23.382 38.597C23.376 38.597 23.371 38.597 23.365 38.596L22.18 38.539C21.922 38.527 21.774 38.245 21.914 38.032L23.915 34.987C24.146 34.635 24.167 34.19 23.973 33.819L22.642 31.276C22.447 30.905 22.066 30.665 21.64 30.643L18.729 30.503C18.713 30.502 18.696 30.502 18.679 30.502C18.278 30.502 17.891 30.7 17.67 31.038L15.669 34.084C15.603 34.185 15.495 34.235 15.387 34.235C15.269 34.235 15.15 34.174 15.088 34.056L14.546 33.02C14.491 32.916 14.497 32.79 14.562 32.691L17.367 28.422C17.649 27.993 18.132 27.736 18.649 27.736C18.674 27.736 18.699 27.737 18.724 27.738L21.206 27.858C21.229 27.859 21.251 27.86 21.274 27.86C21.706 27.86 22.117 27.615 22.321 27.23L27.646 17.193ZM62.826 28.639H62.831ZM62.826 28.639C64.394 30.398 66.676 31.527 69.226 31.582L63.805 39.561C62.396 37.461 60.193 35.923 57.618 35.353L62.826 28.639ZM55.407 37.443C59.637 37.443 63.079 40.821 63.079 44.973C63.079 49.125 59.637 52.502 55.407 52.502C51.175 52.502 47.734 49.124 47.734 44.973C47.735 40.822 51.176 37.443 55.407 37.443ZM55.407 49.815C58.128 49.815 60.341 47.643 60.341 44.973C60.341 42.301 58.128 40.13 55.407 40.13C52.684 40.13 50.472 42.301 50.472 44.973C50.472 47.643 52.686 49.815 55.407 49.815ZM55.406 42.469C56.813 42.469 57.957 43.592 57.957 44.973C57.957 46.354 56.813 47.476 55.406 47.476C53.999 47.476 52.854 46.353 52.854 44.973C52.855 43.593 53.999 42.469 55.406 42.469ZM48.279 52.969C49.65 54.892 52.708 55.881 55.33 55.881C57.83 55.881 60.232 55.284 62.06 53.244L66.985 69.996L41.981 69.997L48.279 52.969ZM24.996 59.97V75.998H7.1V59.971H12.981V66.847C12.981 67.48 13.525 67.992 14.195 67.992H18.799C19.47 67.992 20.013 67.479 20.013 66.847L20.014 59.97H24.996ZM17.98 59.97V65.966H14.995V59.97H17.98ZM73.908 71.99C75.063 71.99 75.811 72.5 75.999 73.992C75.999 75.097 75.062 75.992 73.908 75.992H38.089C36.934 75.992 35.998 75.096 35.998 73.991C35.998 72.886 36.934 71.99 38.089 71.99H70.042H73.908ZM33.583 0C26.443 0 20.634 5.768 20.634 12.857C20.634 13.014 20.637 13.17 20.643 13.325C20.621 13.364 20.6 13.403 20.579 13.442L17.182 19.846C14.538 20.254 12.735 21.754 11.241 24.029L8.437 28.298C6.778 30.826 6.619 34.055 8.018 36.73L8.562 37.769C9.928 40.377 11.976 41.49 14.891 41.662C16.281 44.189 18.903 45.832 21.796 45.971L22.98 46.028C23.108 46.035 23.254 46.038 23.382 46.038C26.199 46.038 28.804 44.633 30.35 42.28L33.155 38.57C34.72 36.187 35.113 33.252 34.294 30.583L38.688 25.083C38.777 24.97 38.864 24.857 38.947 24.74L52.338 29.107L51.747 29.869C44.866 31.507 40.016 37.657 40.014 44.971C40.014 46.869 40.359 48.687 40.99 50.37L35.556 64.308C34.647 64.542 33.787 64.898 32.996 65.359V59.97C32.996 55.551 29.414 51.968 24.996 51.968L7.1 51.97C3.582 51.97 0 55.552 0 59.971V75.998C0 80.417 3.582 83.1 7.1 83.1H24.996C27.435 83.1 29.619 82.908 31.086 81.187C32.903 82.924 35.372 83.994 38.089 83.994H73.908C79.47 83.994 83.997 79.508 83.999 73.995C83.998 70.5 82.877 68.671 80.918 66.796C79.027 64.986 76.537 63.989 73.908 63.989H73.558L69.784 51.154C70.617 49.259 71.079 47.168 71.079 44.973C71.079 44.385 71.046 43.806 70.982 43.235L75.843 36.08C75.95 35.922 76.05 35.762 76.145 35.599C80.701 33.202 83.998 28.446 83.998 22.985C83.998 15.118 77.358 8.716 69.425 8.714C68.024 8.714 66.668 8.914 65.386 9.286C65.246 9.245 65.103 9.208 64.959 9.175L43.073 4.119C40.706 1.587 37.327 0 33.583 0Z" fill="#011842"/>
</svg>
