<svg xmlns="http://www.w3.org/2000/svg" xmlns:xlink="http://www.w3.org/1999/xlink" viewBox="0,0,256,256" width="64px" height="64px" fill-rule="nonzero"><g fill="#20c93f" fill-rule="nonzero" stroke="none" stroke-width="1" stroke-linecap="butt" stroke-linejoin="miter" stroke-miterlimit="10" stroke-dasharray="" stroke-dashoffset="0" font-family="none" font-weight="none" font-size="none" text-anchor="none" style="mix-blend-mode: normal"><g transform="scale(5.12,5.12)"><path d="M9.43359,8c-0.52734,0 -0.96094,0.17969 -1.33203,0.55078c-1.83594,1.82422 -3.67578,3.64063 -5.52344,5.45313c-0.39062,0.38281 -0.57812,0.82813 -0.57812,1.36328c0.00781,8.03906 0.00781,24.01563 0.00781,25.51563l0.07031,1.11328h1c1.47266,0 25.44531,-0.00391 37.47266,0.00391c0.54297,0 0.99609,-0.1875 1.39453,-0.57812c1.81641,-1.8125 3.64063,-3.61328 5.47266,-5.40625c0.39063,-0.39062 0.58203,-0.84375 0.58203,-1.39844c-0.00781,-8.37109 0,-25.61719 0,-25.61719v-1zM19.09375,14c0.94141,0.00391 1.875,0.08203 2.80078,0.32031c1.87891,0.48047 3.21484,1.58203 4,3.33984c0.46094,1.03516 0.73047,2.12109 0.88672,3.23438c0.16406,1.19531 0.23828,2.40234 0.21094,3.60547c-0.03516,1.5625 -0.14453,3.11328 -0.57812,4.625c-0.30469,1.05859 -0.76953,2.03516 -1.54297,2.83984c-0.29297,0.30859 -0.63281,0.57422 -0.96875,0.87891c0.77734,1.23828 1.5625,2.49219 2.37891,3.78906c-0.98828,0.45703 -1.95312,0.90234 -2.96484,1.36719c-0.85156,-1.37891 -1.69531,-2.74609 -2.53125,-4.09375c-1.66406,0.22656 -3.28125,0.17578 -4.875,-0.24219c-1.83594,-0.48047 -3.14062,-1.57031 -3.88281,-3.30469c-0.41406,-0.96484 -0.65625,-1.96484 -0.80859,-2.99219c-0.16406,-1.09766 -0.23047,-2.20703 -0.21875,-3.31641c0.01953,-1.64453 0.11719,-3.28516 0.58984,-4.87891c0.17188,-0.58203 0.39063,-1.15625 0.64453,-1.70703c0.73047,-1.58203 1.98438,-2.57422 3.65625,-3.07031c0.73828,-0.21484 1.48828,-0.33984 2.25391,-0.375c0.31641,-0.01172 0.63281,-0.01953 0.94922,-0.01953zM31,16h3v4h4v3h-4c0,0 -0.01172,3.10938 0,5c0.00391,0.53125 0.01953,1.34766 0.0625,1.875c0.00781,0.14063 0.04688,0.27734 0.08203,0.41797c0.09375,0.33594 0.31641,0.55859 0.65234,0.62891c0.26563,0.05469 0.53906,0.08203 0.80859,0.07813c0.625,-0.01172 1.41406,-0.10937 2.03906,-0.13281c0.05859,-0.00391 0.11328,0.01172 0.21875,0.01953c0.06641,0.78516 0.10938,1.87891 0.13672,2.69531c-0.28516,0.05469 -0.55078,0.10547 -0.8125,0.15234c-0.93359,0.16797 -2.03906,0.31641 -2.98437,0.23438c-0.49609,-0.04687 -0.98047,-0.14844 -1.44141,-0.34375c-0.60547,-0.26172 -1.03516,-0.6875 -1.29297,-1.29687c-0.30859,-0.71484 -0.46875,-1.55859 -0.46875,-2.32812v-7h-2v-3h2zM18.99609,17.01953c-0.59375,0 -1.1875,0.07031 -1.77734,0.21484c-1.04687,0.26172 -1.83203,0.81641 -2.29687,1.70313c-0.11328,0.21094 -0.21875,0.42969 -0.30078,0.65234c-0.41406,1.07422 -0.57812,2.19141 -0.60937,3.32031c-0.02734,1.04297 -0.00391,2.08984 0.05078,3.13281c0.05469,0.92969 0.24609,1.83984 0.60547,2.72266c0.44531,1.08984 1.29297,1.77344 2.55078,2.05469c1.19922,0.26953 2.40234,0.26563 3.59766,-0.00781c1.17578,-0.27344 2.01172,-0.90234 2.43359,-1.93359c0.10938,-0.26172 0.20703,-0.53125 0.28516,-0.80469c0.37109,-1.28516 0.41016,-2.59766 0.46484,-4.28906c-0.05859,-0.60937 -0.11719,-1.59375 -0.24219,-2.57031c-0.10156,-0.80859 -0.33203,-1.59375 -0.73828,-2.32812c-0.47266,-0.85547 -1.23047,-1.40234 -2.25,-1.65234c-0.58984,-0.14453 -1.18359,-0.21484 -1.77344,-0.21484z"></path></g></g><g fill-opacity="0.67843" fill="#000000" fill-rule="nonzero" stroke="none" stroke-width="1" stroke-linecap="butt" stroke-linejoin="miter" stroke-miterlimit="10" stroke-dasharray="" stroke-dashoffset="0" font-family="none" font-weight="none" font-size="none" text-anchor="none" style="mix-blend-mode: normal"><g id="text"><path d="M122.695,63.32l-1.26,-3.75h-6.57l-1.25,3.75h-3.99l6.77,-18.2h3.48l6.81,18.2zM118.135,49.72l-2.26,6.81h4.55zM139.725,56.5v0.18c0,2.08667 -0.47333,3.75667 -1.42,5.01c-0.94667,1.25333 -2.22333,1.88 -3.83,1.88v0c-1.36667,0 -2.47,-0.47333 -3.31,-1.42v0v6.37h-3.62v-18.72h3.35l0.13,1.32c0.87333,-1.04667 2.01333,-1.57 3.42,-1.57v0c1.66667,0 2.96333,0.61667 3.89,1.85c0.92667,1.23333 1.39,2.93333 1.39,5.1zM136.115,56.42v0c0,-1.26 -0.22333,-2.23 -0.67,-2.91c-0.44667,-0.68667 -1.09667,-1.03 -1.95,-1.03v0c-1.13333,0 -1.91,0.43333 -2.33,1.3v0v5.54c0.44,0.89333 1.22667,1.34 2.36,1.34v0c1.72667,0 2.59,-1.41333 2.59,-4.24zM154.135,56.5v0.18c0,2.08667 -0.47333,3.75667 -1.42,5.01c-0.94667,1.25333 -2.22333,1.88 -3.83,1.88v0c-1.36667,0 -2.47,-0.47333 -3.31,-1.42v0v6.37h-3.61v-18.72h3.34l0.13,1.32c0.87333,-1.04667 2.01667,-1.57 3.43,-1.57v0c1.66667,0 2.96,0.61667 3.88,1.85c0.92667,1.23333 1.39,2.93333 1.39,5.1zM150.525,56.42v0c0,-1.26 -0.22333,-2.23 -0.67,-2.91c-0.44667,-0.68667 -1.09333,-1.03 -1.94,-1.03v0c-1.13333,0 -1.91333,0.43333 -2.34,1.3v0v5.54c0.44,0.89333 1.22667,1.34 2.36,1.34v0c1.72667,0 2.59,-1.41333 2.59,-4.24zM160.185,44.12v19.2h-3.62v-19.2zM166.975,49.8v13.52h-3.63v-13.52zM163.135,46.29v0c0,-0.54 0.18,-0.98333 0.54,-1.33c0.36667,-0.35333 0.86333,-0.53 1.49,-0.53v0c0.61333,0 1.10333,0.17667 1.47,0.53c0.36667,0.34667 0.55,0.79 0.55,1.33v0c0,0.55333 -0.18667,1.00667 -0.56,1.36c-0.36667,0.34667 -0.85333,0.52 -1.46,0.52c-0.61333,0 -1.10333,-0.17333 -1.47,-0.52c-0.37333,-0.35333 -0.56,-0.80667 -0.56,-1.36zM175.575,60.66v0c0.66667,0 1.20667,-0.18333 1.62,-0.55c0.42,-0.36667 0.63667,-0.85333 0.65,-1.46v0h3.39c-0.00667,0.91333 -0.25667,1.75 -0.75,2.51c-0.49333,0.76667 -1.16667,1.36 -2.02,1.78c-0.85333,0.42 -1.79667,0.63 -2.83,0.63v0c-1.93333,0 -3.45667,-0.61333 -4.57,-1.84c-1.12,-1.23333 -1.68,-2.93333 -1.68,-5.1v0v-0.23c0,-2.08667 0.55333,-3.75 1.66,-4.99c1.11333,-1.24 2.63667,-1.86 4.57,-1.86v0c1.68667,0 3.04,0.48 4.06,1.44c1.02667,0.96 1.54667,2.24 1.56,3.84v0h-3.39c-0.01333,-0.7 -0.23,-1.26667 -0.65,-1.7c-0.41333,-0.44 -0.96333,-0.66 -1.65,-0.66v0c-0.84,0 -1.47333,0.30667 -1.9,0.92c-0.43333,0.61333 -0.65,1.60667 -0.65,2.98v0v0.38c0,1.38667 0.21333,2.38667 0.64,3c0.42667,0.60667 1.07333,0.91 1.94,0.91zM194.785,63.32h-3.65c-0.16667,-0.32667 -0.28667,-0.73 -0.36,-1.21v0c-0.88,0.97333 -2.01667,1.46 -3.41,1.46v0c-1.32667,0 -2.42667,-0.38333 -3.3,-1.15c-0.87333,-0.76667 -1.31,-1.73333 -1.31,-2.9v0c0,-1.43333 0.53333,-2.53333 1.6,-3.3c1.06,-0.76667 2.59333,-1.15333 4.6,-1.16v0h1.67v-0.78c0,-0.62 -0.16,-1.12 -0.48,-1.5c-0.32,-0.37333 -0.82667,-0.56 -1.52,-0.56v0c-0.61333,0 -1.09,0.14667 -1.43,0.44c-0.34667,0.29333 -0.52,0.69333 -0.52,1.2v0h-3.61c0,-0.78667 0.24,-1.51333 0.72,-2.18c0.48,-0.66667 1.16333,-1.19 2.05,-1.57c0.88667,-0.37333 1.88,-0.56 2.98,-0.56v0c1.66667,0 2.98667,0.41667 3.96,1.25c0.98,0.84 1.47,2.01667 1.47,3.53v0v5.87c0.00667,1.28 0.18667,2.25 0.54,2.91v0zM188.145,60.81v0c0.53333,0 1.02667,-0.12 1.48,-0.36c0.44667,-0.23333 0.78,-0.55 1,-0.95v0v-2.33h-1.35c-1.80667,0 -2.77,0.62667 -2.89,1.88v0l-0.01,0.21c0,0.44667 0.15667,0.81667 0.47,1.11c0.32,0.29333 0.75333,0.44 1.3,0.44zM197.735,46.47h3.61v3.33h2.32v2.65h-2.32v6.75c0,0.5 0.09667,0.85667 0.29,1.07c0.19333,0.22 0.56,0.33 1.1,0.33v0c0.4,0 0.75333,-0.03 1.06,-0.09v0v2.74c-0.70667,0.21333 -1.43667,0.32 -2.19,0.32v0c-2.53333,0 -3.82333,-1.28 -3.87,-3.84v0v-7.28h-1.98v-2.65h1.98zM209.485,49.8v13.52h-3.62v-13.52zM205.645,46.29v0c0,-0.54 0.18333,-0.98333 0.55,-1.33c0.36,-0.35333 0.85333,-0.53 1.48,-0.53v0c0.61333,0 1.10333,0.17667 1.47,0.53c0.36667,0.34667 0.55,0.79 0.55,1.33v0c0,0.55333 -0.18333,1.00667 -0.55,1.36c-0.37333,0.34667 -0.86333,0.52 -1.47,0.52c-0.61333,0 -1.10333,-0.17333 -1.47,-0.52c-0.37333,-0.35333 -0.56,-0.80667 -0.56,-1.36zM211.895,56.6v-0.17c0,-1.34 0.26,-2.53333 0.78,-3.58c0.51333,-1.05333 1.25667,-1.86667 2.23,-2.44c0.96667,-0.57333 2.09333,-0.86 3.38,-0.86v0c1.82667,0 3.31667,0.55667 4.47,1.67c1.15333,1.12 1.79667,2.63667 1.93,4.55v0l0.02,0.93c0,2.07333 -0.57667,3.73667 -1.73,4.99c-1.16,1.25333 -2.71667,1.88 -4.67,1.88c-1.94667,0 -3.5,-0.62333 -4.66,-1.87c-1.16667,-1.25333 -1.75,-2.95333 -1.75,-5.1zM215.505,56.7v0c0,1.28 0.24333,2.26 0.73,2.94c0.48,0.68 1.17,1.02 2.07,1.02v0c0.88,0 1.56333,-0.33667 2.05,-1.01c0.49333,-0.66667 0.74,-1.74 0.74,-3.22v0c0,-1.25333 -0.24667,-2.22667 -0.74,-2.92c-0.48667,-0.69333 -1.17667,-1.04 -2.07,-1.04v0c-0.88667,0 -1.57,0.34333 -2.05,1.03c-0.48667,0.68667 -0.73,1.75333 -0.73,3.2zM226.855,49.8h3.4l0.12,1.56c0.96667,-1.20667 2.26,-1.81 3.88,-1.81v0c1.43333,0 2.5,0.42 3.2,1.26c0.7,0.84 1.06,2.09667 1.08,3.77v0v8.74h-3.61v-8.65c0,-0.76667 -0.16667,-1.32333 -0.5,-1.67c-0.33333,-0.34667 -0.89,-0.52 -1.67,-0.52v0c-1.01333,0 -1.77333,0.43333 -2.28,1.3v0v9.54h-3.62z"></path></g></g></svg>