<svg width="91" height="85" viewBox="0 0 91 85" fill="none" xmlns="http://www.w3.org/2000/svg">
<path fill-rule="evenodd" clip-rule="evenodd" d="M75.994 29.9238V19.8668C75.994 19.5278 75.949 19.1898 75.86 18.8588C75.835 18.7638 75.797 18.6738 75.755 18.5928C75.686 18.3738 75.597 18.1618 75.477 17.9358C75.426 17.8468 75.364 17.7648 75.294 17.6868C75.176 17.5018 75.043 17.3288 74.873 17.1438C74.798 17.0678 74.713 17.0008 74.615 16.9348C74.464 16.7968 74.302 16.6708 74.095 16.5348L47.431 0.556762C46.242 -0.144238 44.698 -0.145238 43.505 0.557762L16.889 16.5578C16.718 16.6708 16.556 16.7988 16.399 16.9368C16.311 16.0998 16.226 17.0648 16.125 17.1688C15.978 17.3298 15.846 17.5028 15.724 17.6848C15.659 17.7638 15.597 17.8448 15.527 17.9678C15.422 18.1688 15.334 18.3788 15.267 18.5808C15.225 18.6718 15.187 18.7648 15.161 18.8598C15.072 19.1878 15.028 19.5268 15.028 19.8678V29.9238C5.576 35.6968 0 43.9448 0 52.6188C0 69.5278 20.397 83.2838 45.466 83.2838C52.161 83.2858 58.765 82.2948 65.135 80.2818C64.986 81.2978 65.244 82.6168 65.877 83.4528C66.611 84.4228 67.761 84.9838 68.961 84.9838C69.12 84.9838 69.28 84.9748 69.439 84.9548C70.804 84.7818 71.983 83.8848 72.517 82.6148L75.714 74.7338C75.946 74.2438 76.067 73.7208 76.078 73.1788C76.078 73.1488 76.076 73.1138 76.073 73.0778C76.074 72.3268 75.859 71.5998 75.45 70.9718C75.028 70.3208 74.426 69.8188 73.712 69.5208L65.965 66.2558C64.693 65.7198 63.226 65.9068 62.129 66.7398C61.034 67.5738 60.46 68.9398 60.633 70.3068C60.775 71.4368 61.412 72.4398 62.344 73.0558C56.875 74.7328 51.215 75.5608 45.469 75.5448C24.658 75.5448 7.727 65.2598 7.725 52.6768C7.915 49.7938 8.793 46.9568 10.263 44.4718C11.448 42.4698 13.188 40.6948 15.027 39.2698V52.6168C15.027 53.9798 15.754 55.2568 16.926 55.9498L43.505 71.5928C44.697 72.2948 46.245 72.2948 47.432 71.5918L74.095 55.9498C75.266 55.2568 75.994 53.9798 75.994 52.6178V39.2698C77.834 40.6948 79.488 42.4688 80.674 44.4718C82.145 46.9568 83.022 49.7938 83.21 52.6178C83.21 53.9948 83.95 55.2788 85.141 55.9678C86.333 56.6568 87.812 56.6588 89.006 55.9678C90.197 55.2788 90.937 53.9948 90.937 52.6178C90.937 43.9438 85.446 35.6958 75.994 29.9238ZM68.015 26.6438V50.4078L49.08 61.6508V37.8868L68.015 26.6438ZM64.613 19.8668L45.469 31.1848L26.325 19.8668L45.469 8.54976L64.613 19.8668ZM41.018 37.8868V61.6508L23.006 50.4078L23.005 26.6438L41.018 37.8868Z" fill="white"/>
</svg>
