<svg width="91" height="90" viewBox="0 0 91 90" fill="none" xmlns="http://www.w3.org/2000/svg">
<g clip-path="url(#clip0_687_86)">
<path fill-rule="evenodd" clip-rule="evenodd" d="M81.9 90.015H9.1C4.095 90.015 0 85.918 0 80.911V26.097C0 21.09 3.972 16.993 8.977 16.993V14.375C8.977 13.621 9.588 13.01 10.342 13.01H16.65C17.404 13.01 18.015 13.621 18.015 14.375V16.993H26.992V8.03402C26.992 7.25502 27.359 6.52102 27.982 6.05402L28.812 5.43002C38.367 -1.85298 52.633 -1.85298 62.188 5.43002L63.018 6.05402C63.641 6.52102 64.008 7.25502 64.008 8.03402V16.993H72.985V14.375C72.985 13.621 73.596 13.01 74.35 13.01H80.658C81.412 13.01 82.023 13.621 82.023 14.375V16.993C87.028 16.993 91 21.09 91 26.097V80.911C91 85.918 86.905 90.015 81.9 90.015ZM55.007 12.193C55.007 11.663 54.715 11.172 54.244 10.93C49.141 8.30202 41.858 8.30202 36.755 10.93C36.283 11.172 35.991 11.663 35.991 12.193V16.993H55.007V12.193ZM82.994 26.969C82.994 25.864 82.098 24.968 80.994 24.968H10.006C8.902 24.968 8.006 25.864 8.006 26.969V80.004C8.006 81.109 8.902 82.005 10.006 82.005H80.994C82.098 82.005 82.994 81.109 82.994 80.004V26.969ZM58.895 58.003H50.598C50.266 58.003 49.998 58.271 49.998 58.603V66.903C49.998 68.063 49.058 69.003 47.899 69.003H43.101C41.942 69.003 41.002 68.063 41.002 66.903V58.603C41.002 58.271 40.734 58.003 40.402 58.003H32.105C30.946 58.003 30.006 57.063 30.006 55.903V51.102C30.006 49.942 30.946 49.002 32.105 49.002H40.402C40.734 49.002 41.002 48.733 41.002 48.402V40.102C41.002 38.942 41.942 38.002 43.101 38.002H47.899C49.058 38.002 49.998 38.942 49.998 40.102V48.402C49.998 48.733 50.266 49.002 50.598 49.002H58.895C60.054 49.002 60.994 49.942 60.994 51.102V55.903C60.994 57.063 60.054 58.003 58.895 58.003Z" fill="white"/>
</g>
<defs>
<clipPath id="clip0_687_86">
<rect width="91" height="90" fill="white"/>
</clipPath>
</defs>
</svg>
